<svg width="512" height="512" xmlns="http://www.w3.org/2000/svg">

 <g>
  <title>background</title>
  <rect fill="none" id="canvas_background" height="402" width="582" y="-1" x="-1"/>
 </g>
 <g>
  <title>Layer 1</title>
  <path id="svg_1" fill="#ffeaa7" d="m0,0l512,0l0,512l-512,0l0,-512z"/>
  <g id="svg_2">
   <path id="svg_3" fill="#e17055" d="m370.019,18.023c-2.843,-0.035 -5.859,0.197 -9.075,0.73c-50.50573,0.63107 -38.657,142.295 -36.095,217.397c-84.163,-16.327 -168.007,121.048 -289.118,152.787c58.086,52.473 206.05,89.6 331.739,11.85c39.804,-24.622 25.81556,-82.014 14.89856,-155.049c-6.703,-44.845 -52.31056,-143.176 9.17544,-151.266l0.611,-0.504c12.884,-10.608 16.606,-23.842 22.522,-37.699l1.699,-3.976c-11.688,-16.016 -23.17,-33.986 -46.357,-34.27zm5.08,19.625a9,9 0 0 1 9,9a9,9 0 0 1 -9,9a9,9 0 0 1 -9,-9a9,9 0 0 1 9,-9zm50.41729,29.02914c-3.28,8.167 -5.12529,22.59286 -12.32629,31.43586c21.035,7.63 41.929,3.078 63.079,-0.863c-15.515,-9.272 -34.28871,-23.33786 -50.75271,-30.57286zm-87.32229,186.19586c19.109,25.924 21.374,53.965 11.637,78.183c-9.737,24.219 -30.345,44.797 -55.67,60.49c-50.65,31.389 -121.288,44.45 -170.553,17.11l8.735,-15.738c40.364,22.4 106.342,11.833 152.338,-16.67c22.997,-14.252 40.72,-32.684 48.449,-51.906c7.729,-19.223 6.596,-39.053 -9.426,-60.79l14.49,-10.68l0,0.001zm-64.914,203.45a332.68,332.68 0 0 1 -19.095,3.232l-3.508,16.426l-13.084,0l3.508,-14.842a400.208,400.208 0 0 1 -18.852,1.506l-7.408,31.336l95.79,0l0,-18l-41.548,0l4.197,-19.658z"/>
  </g>
 </g>
</svg>